<svg width="200" height="36" viewBox="0 0 200 36" fill="none" xmlns="http://www.w3.org/2000/svg">
<text fill="#16133D" xml:space="preserve" style="white-space: pre" font-family="Quicksand" font-size="35" font-weight="500" letter-spacing="0em"><tspan x="43.617" y="30.625">Freehand</tspan></text>
<mask id="path-2-outside-1_3101_20" maskUnits="userSpaceOnUse" x="0.0638428" y="2" width="32" height="32" fill="black">
<rect fill="white" x="0.0638428" y="2" width="32" height="32"/>
<path d="M31.0638 10.7871C31.0638 6.49329 27.5798 3 23.2975 3C20.0757 3 17.2106 5.02039 16.0639 7.953C14.9171 5.02039 12.0518 3 8.83015 3C4.54788 3 1.06384 6.49329 1.06384 10.7871C1.06384 14.0134 3.00546 16.8292 5.91059 18C3.00546 19.1708 1.06384 21.9866 1.06384 25.2129C1.06384 29.5067 4.54788 33 8.83015 33C12.0518 33 14.9171 30.9796 16.0639 28.047C17.2106 30.9796 20.0757 33 23.2975 33C27.5798 33 31.0638 29.5067 31.0638 25.2129C31.0638 21.9866 29.1222 19.1708 26.2171 18C29.1222 16.8292 31.0638 14.0134 31.0638 10.7871ZM24.8904 17.6349C24.7211 17.6741 24.6011 17.8257 24.6011 18C24.6011 18.1743 24.7211 18.3259 24.8904 18.3651C28.0848 19.1096 30.3158 21.9254 30.3158 25.2129C30.3158 29.0933 27.1674 32.25 23.2975 32.25C19.9947 32.25 17.1063 29.9004 16.4299 26.6635C16.3937 26.4899 16.2409 26.3654 16.0639 26.3654C15.887 26.3654 15.7341 26.4899 15.698 26.6635C15.0214 29.9004 12.133 32.25 8.83015 32.25C4.96024 32.25 1.81186 29.0933 1.81186 25.2129C1.81186 21.9254 4.04293 19.1096 7.23733 18.3651C7.40662 18.3259 7.5266 18.1743 7.5266 18C7.5266 17.8257 7.40662 17.6741 7.23733 17.6349C4.04293 16.8904 1.81186 14.0746 1.81186 10.7871C1.81186 6.90674 4.96024 3.75 8.83015 3.75C12.133 3.75 15.0214 6.09961 15.698 9.33655C15.7341 9.51013 15.887 9.63464 16.0639 9.63464C16.2409 9.63464 16.3937 9.51013 16.4299 9.33655C17.1063 6.09961 19.9947 3.75 23.2975 3.75C27.1674 3.75 30.3158 6.90674 30.3158 10.7871C30.3158 14.0746 28.0848 16.8904 24.8904 17.6349Z"/>
</mask>
<path d="M31.0638 10.7871C31.0638 6.49329 27.5798 3 23.2975 3C20.0757 3 17.2106 5.02039 16.0639 7.953C14.9171 5.02039 12.0518 3 8.83015 3C4.54788 3 1.06384 6.49329 1.06384 10.7871C1.06384 14.0134 3.00546 16.8292 5.91059 18C3.00546 19.1708 1.06384 21.9866 1.06384 25.2129C1.06384 29.5067 4.54788 33 8.83015 33C12.0518 33 14.9171 30.9796 16.0639 28.047C17.2106 30.9796 20.0757 33 23.2975 33C27.5798 33 31.0638 29.5067 31.0638 25.2129C31.0638 21.9866 29.1222 19.1708 26.2171 18C29.1222 16.8292 31.0638 14.0134 31.0638 10.7871ZM24.8904 17.6349C24.7211 17.6741 24.6011 17.8257 24.6011 18C24.6011 18.1743 24.7211 18.3259 24.8904 18.3651C28.0848 19.1096 30.3158 21.9254 30.3158 25.2129C30.3158 29.0933 27.1674 32.25 23.2975 32.25C19.9947 32.25 17.1063 29.9004 16.4299 26.6635C16.3937 26.4899 16.2409 26.3654 16.0639 26.3654C15.887 26.3654 15.7341 26.4899 15.698 26.6635C15.0214 29.9004 12.133 32.25 8.83015 32.25C4.96024 32.25 1.81186 29.0933 1.81186 25.2129C1.81186 21.9254 4.04293 19.1096 7.23733 18.3651C7.40662 18.3259 7.5266 18.1743 7.5266 18C7.5266 17.8257 7.40662 17.6741 7.23733 17.6349C4.04293 16.8904 1.81186 14.0746 1.81186 10.7871C1.81186 6.90674 4.96024 3.75 8.83015 3.75C12.133 3.75 15.0214 6.09961 15.698 9.33655C15.7341 9.51013 15.887 9.63464 16.0639 9.63464C16.2409 9.63464 16.3937 9.51013 16.4299 9.33655C17.1063 6.09961 19.9947 3.75 23.2975 3.75C27.1674 3.75 30.3158 6.90674 30.3158 10.7871C30.3158 14.0746 28.0848 16.8904 24.8904 17.6349Z" fill="#3DB370"/>
<path d="M31.0638 10.7871C31.0638 6.49329 27.5798 3 23.2975 3C20.0757 3 17.2106 5.02039 16.0639 7.953C14.9171 5.02039 12.0518 3 8.83015 3C4.54788 3 1.06384 6.49329 1.06384 10.7871C1.06384 14.0134 3.00546 16.8292 5.91059 18C3.00546 19.1708 1.06384 21.9866 1.06384 25.2129C1.06384 29.5067 4.54788 33 8.83015 33C12.0518 33 14.9171 30.9796 16.0639 28.047C17.2106 30.9796 20.0757 33 23.2975 33C27.5798 33 31.0638 29.5067 31.0638 25.2129C31.0638 21.9866 29.1222 19.1708 26.2171 18C29.1222 16.8292 31.0638 14.0134 31.0638 10.7871ZM24.8904 17.6349C24.7211 17.6741 24.6011 17.8257 24.6011 18C24.6011 18.1743 24.7211 18.3259 24.8904 18.3651C28.0848 19.1096 30.3158 21.9254 30.3158 25.2129C30.3158 29.0933 27.1674 32.25 23.2975 32.25C19.9947 32.25 17.1063 29.9004 16.4299 26.6635C16.3937 26.4899 16.2409 26.3654 16.0639 26.3654C15.887 26.3654 15.7341 26.4899 15.698 26.6635C15.0214 29.9004 12.133 32.25 8.83015 32.25C4.96024 32.25 1.81186 29.0933 1.81186 25.2129C1.81186 21.9254 4.04293 19.1096 7.23733 18.3651C7.40662 18.3259 7.5266 18.1743 7.5266 18C7.5266 17.8257 7.40662 17.6741 7.23733 17.6349C4.04293 16.8904 1.81186 14.0746 1.81186 10.7871C1.81186 6.90674 4.96024 3.75 8.83015 3.75C12.133 3.75 15.0214 6.09961 15.698 9.33655C15.7341 9.51013 15.887 9.63464 16.0639 9.63464C16.2409 9.63464 16.3937 9.51013 16.4299 9.33655C17.1063 6.09961 19.9947 3.75 23.2975 3.75C27.1674 3.75 30.3158 6.90674 30.3158 10.7871C30.3158 14.0746 28.0848 16.8904 24.8904 17.6349Z" stroke="#3DB370" stroke-width="2" mask="url(#path-2-outside-1_3101_20)"/>
</svg>
